<svg width="22.000000" height="22.000000" viewBox="0 0 22 22" fill="none" xmlns="http://www.w3.org/2000/svg" xmlns:xlink="http://www.w3.org/1999/xlink">
	<desc>
			Created with Pixso.
	</desc>
	<defs>
		<linearGradient x1="-229.085236" y1="-4.853119" x2="-225.625824" y2="24.281290" id="paint_linear_2_5_0" gradientUnits="userSpaceOnUse">
			<stop stop-color="#D44F4F"/>
			<stop offset="1.000000" stop-color="#B43333"/>
		</linearGradient>
		<linearGradient x1="-229.085236" y1="-4.853119" x2="-225.625824" y2="24.281290" id="paint_linear_2_5_1" gradientUnits="userSpaceOnUse">
			<stop stop-color="#59D44F"/>
			<stop offset="1.000000" stop-color="#36B433"/>
		</linearGradient>
		<linearGradient x1="-229.085236" y1="-4.853119" x2="-225.625824" y2="24.281290" id="paint_linear_2_5_2" gradientUnits="userSpaceOnUse">
			<stop stop-color="#D44F4F"/>
			<stop offset="1.000000" stop-color="#B43333"/>
		</linearGradient>
	</defs>
	<g opacity="0.400000">
		<rect id="Component 8" width="22.000000" height="22.000000" fill="#FFFFFF" fill-opacity="0"/>
		<path id="Vector" d="M5.88 15.17C4.06 13.26 2.62 11.98 2.15 9.96C1.8 8.47 1.9 5.72 3.95 4.45C8.45 1.63 10.97 5.95 10.97 5.95L11.02 5.95C11.02 5.95 13.54 1.63 18.04 4.45C20.09 5.72 20.19 8.47 19.84 9.96C19.37 11.98 17.93 13.26 16.11 15.17C11 20 11 20 11 20C11 20 11 20 5.88 15.17Z" fill="url(#paint_linear_2_5_0)" fill-opacity="0" fill-rule="evenodd"/>
		<path id="Vector" d="M5.88 15.17C4.06 13.26 2.62 11.98 2.15 9.96C1.8 8.47 1.9 5.72 3.95 4.45C8.45 1.63 10.97 5.95 10.97 5.95L11.02 5.95C11.02 5.95 13.54 1.63 18.04 4.45C20.09 5.72 20.19 8.47 19.84 9.96C19.37 11.98 17.93 13.26 16.11 15.17C11 20 11 20 11 20C11 20 11 20 5.88 15.17Z" fill="#8297AB" fill-opacity="0" fill-rule="evenodd"/>
		<path id="Vector" d="M2.15 9.96C1.8 8.47 1.9 5.72 3.95 4.45C8.45 1.63 10.97 5.95 10.97 5.95L11.02 5.95C11.02 5.95 13.54 1.63 18.04 4.45C20.09 5.72 20.19 8.47 19.84 9.96C19.37 11.98 17.93 13.26 16.11 15.17C11 20 11 20 11 20C11 20 11 20 5.88 15.17C4.06 13.26 2.62 11.98 2.15 9.96Z" stroke="#41BB45" stroke-opacity="1.000000" stroke-width="1.000000"/>
		<path id="Vector" d="M2.15 9.96C1.8 8.47 1.9 5.72 3.95 4.45C8.45 1.63 10.97 5.95 10.97 5.95L11.02 5.95C11.02 5.95 13.54 1.63 18.04 4.45C20.09 5.72 20.19 8.47 19.84 9.96C19.37 11.98 17.93 13.26 16.11 15.17C11 20 11 20 11 20C11 20 11 20 5.88 15.17C4.06 13.26 2.62 11.98 2.15 9.96Z" stroke="url(#paint_linear_2_5_1)" stroke-opacity="1.000000" stroke-width="1.000000"/>
		<path id="Vector" d="M2.15 9.96C1.8 8.47 1.9 5.72 3.95 4.45C8.45 1.63 10.97 5.95 10.97 5.95L11.02 5.95C11.02 5.95 13.54 1.63 18.04 4.45C20.09 5.72 20.19 8.47 19.84 9.96C19.37 11.98 17.93 13.26 16.11 15.17C11 20 11 20 11 20C11 20 11 20 5.88 15.17C4.06 13.26 2.62 11.98 2.15 9.96Z" stroke="url(#paint_linear_2_5_2)" stroke-opacity="1.000000" stroke-width="1.000000"/>
		<path id="Vector" d="M2.15 9.96C1.8 8.47 1.9 5.72 3.95 4.45C8.45 1.63 10.97 5.95 10.97 5.95L11.02 5.95C11.02 5.95 13.54 1.63 18.04 4.45C20.09 5.72 20.19 8.47 19.84 9.96C19.37 11.98 17.93 13.26 16.11 15.17C11 20 11 20 11 20C11 20 11 20 5.88 15.17C4.06 13.26 2.62 11.98 2.15 9.96Z" stroke="#8297AB" stroke-opacity="1.000000" stroke-width="1.000000"/>
	</g>
</svg>
